<svg width="18" height="18" viewBox="0 0 18 18" fill="none" xmlns="http://www.w3.org/2000/svg">
    <path
        d="M12 6.75V5.25H9V9.375C8.685 9.1425 8.3025 9 7.875 9C7.37772 9 6.90081 9.19754 6.54918 9.54918C6.19754 9.90081 6 10.3777 6 10.875C6 11.3723 6.19754 11.8492 6.54918 12.2008C6.90081 12.5525 7.37772 12.75 7.875 12.75C8.37228 12.75 8.8492 12.5525 9.20083 12.2008C9.55246 11.8492 9.75 11.3723 9.75 10.875V6.75H12ZM9 1.5C9.98491 1.5 10.9602 1.69399 11.8701 2.0709C12.7801 2.44781 13.6069 3.00026 14.3033 3.6967C14.9997 4.39314 15.5522 5.21993 15.9291 6.12987C16.306 7.03982 16.5 8.01509 16.5 9C16.5 10.9891 15.7098 12.8968 14.3033 14.3033C12.8968 15.7098 10.9891 16.5 9 16.5C8.01509 16.5 7.03982 16.306 6.12987 15.9291C5.21993 15.5522 4.39314 14.9997 3.6967 14.3033C2.29018 12.8968 1.5 10.9891 1.5 9C1.5 7.01088 2.29018 5.10322 3.6967 3.6967C5.10322 2.29018 7.01088 1.5 9 1.5Z"
        fill="#606FF4" />
</svg>